<svg xmlns="http://www.w3.org/2000/svg" viewBox="0 0 62.81 64.32">
<path d="M62.55,13.66H45.88V7.52A7.52,7.52,0,0,0,38.36,0H24.45a7.52,7.52,0,0,0-7.52,7.52v6.14H0v7H3.94l4.78,37.1a7.53,7.53,0,0,0,7.46,6.56H46.63a7.54,7.54,0,0,0,7.46-6.56l4.78-37.1h3.94v-7ZM23.93,7.52A.52.52,0,0,1,24.45,7H38.36a.52.52,0,0,1,.52.52v6.14h-15ZM47.15,56.86a.53.53,0,0,1-.52.46H16.18a.52.52,0,0,1-.52-.46L11,20.66H51.81Z"/>
<rect x="20.25" y="28.27" width="7" height="21.83"/>
<rect x="35.56" y="28.27" width="7" height="21.83"/>
</svg>
